<svg id="Camada_1" data-name="Camada 1" xmlns="http://www.w3.org/2000/svg" viewBox="0 0 310 115"><defs><style>.cls-1{fill:#231f20;}.cls-2{fill:#f58127;}.cls-3{fill:#fff;}</style></defs><path class="cls-1" d="M307.9,9.19l-4.9-6H265l-4.9,4L253.5,38.94H240.27l6.21-29.75-4.89-6h-15l-1.79,1.46-1.19-1.46H208.71l-4.89,4-.9,2.05-4.9-6H183.08l-4.89,4-.61,2.91a22,22,0,0,0-1.94-1.92c-4.36-3.78-9.91-5.69-16.52-5.69a29.55,29.55,0,0,0-26.92,17,38.18,38.18,0,0,0-3.79,16.92c0,.88,0,1.73.09,2.57H117l6.21-29.75-4.89-6h-15l-4.89,4-5,23.69L89.67,7.37l-4.94-4.2H70.61L66.26,5.71,56.91,22.24A22.82,22.82,0,0,0,49.33,8.13C45,4.35,39.42,2.44,32.81,2.44a29.55,29.55,0,0,0-26.92,17A38.18,38.18,0,0,0,2.1,36.37c0,8.08,2.22,14.55,6.6,19.23s10.63,7.28,18.16,7.28a28.3,28.3,0,0,0,14.35-3.71l1.72,2.95h16l4.4-2.61,3.73-6.88h5.38l.8,5.24L77,61.08l-9.32,46.7,4.89,6H86.91l4.89-4,1.13-5.4,2.51,6.25,4.64,3.13h12.7l4.9-4,1.12-5.41a24.39,24.39,0,0,0,6.34,6.08,25.66,25.66,0,0,0,14.53,4.07,30.84,30.84,0,0,0,16.63-4.64c4.9-3.07,11.58-13,11.58-13l-.62,10.83,4.9,6h15l1.89-1.54.9,1.54h16l4.39-2.61,3.74-6.88h5.38l.79,5.24,4.94,4.25h14.49l4.94-5.8-7.13-45.88h15.75l1-.78.63.78h39.67l4.89-4L302.16,45l-3.29-4.07,2-1.61,2.74-13.18-1.22-1.49,2.78-2.26Z"/><path class="cls-2" d="M35.14,37.73a10.43,10.43,0,0,1-3.25,5.15,7,7,0,0,1-4.44,1.59,4.9,4.9,0,0,1-3.92-1.8c-1.14-1.3-1.73-3.31-1.73-6a22.25,22.25,0,0,1,1.69-8.33,12.25,12.25,0,0,1,4-5.62,8.72,8.72,0,0,1,5.12-1.69,5.17,5.17,0,0,1,3.42,1,6.3,6.3,0,0,1,1.69,3.69l.51,2.69L52.5,27l-.36-3a18.27,18.27,0,0,0-6.09-12.09c-3.42-3-7.87-4.47-13.24-4.47a24.59,24.59,0,0,0-22.43,14.2A33.29,33.29,0,0,0,7.1,36.37c0,6.77,1.77,12.09,5.25,15.81s8.42,5.7,14.51,5.7a23.12,23.12,0,0,0,14-4.4A25.87,25.87,0,0,0,49.72,41L51,37.58l-15-2.28Z"/><path class="cls-2" d="M84.73,8.17H70.61L42.93,57.12h16l5.16-9.49H76.76l1.43,9.49H92.68Zm-14,26.31L74,29l.8,5.51Z"/><polygon class="cls-2" points="110.81 43.94 118.28 8.17 103.33 8.17 93.08 57.12 129.92 57.12 132.66 43.94 110.81 43.94"/><path class="cls-2" d="M161.45,37.73a10.43,10.43,0,0,1-3.25,5.15,7,7,0,0,1-4.44,1.59,4.9,4.9,0,0,1-3.92-1.8c-1.14-1.3-1.73-3.31-1.73-6a22.25,22.25,0,0,1,1.69-8.33,12.32,12.32,0,0,1,4-5.62,8.74,8.74,0,0,1,5.12-1.69,5.15,5.15,0,0,1,3.42,1,6.3,6.3,0,0,1,1.69,3.69l.51,2.69L178.81,27l-.36-3a18.27,18.27,0,0,0-6.09-12.09c-3.41-3-7.87-4.47-13.24-4.47a24.59,24.59,0,0,0-22.43,14.2,33.29,33.29,0,0,0-3.28,14.73c0,6.77,1.77,12.09,5.25,15.81s8.42,5.7,14.51,5.7a23.12,23.12,0,0,0,14-4.4A25.87,25.87,0,0,0,176,41l1.24-3.44-15-2.28Z"/><path class="cls-2" d="M208.71,8.17,203.29,34a34.54,34.54,0,0,1-2.08,7.36,5,5,0,0,1-2,2.28,7.6,7.6,0,0,1-3.77.8,5.43,5.43,0,0,1-3.41-.9,2.39,2.39,0,0,1-.86-2,6.78,6.78,0,0,1,.07-.84L198,8.17H183.08l-5.25,25c-.83,4-1,5.08-1.05,5.51a20.77,20.77,0,0,0-.24,3,15.2,15.2,0,0,0,5,11.65c3.21,3,7.76,4.47,13.52,4.47A22.84,22.84,0,0,0,206.92,55a18.83,18.83,0,0,0,7.25-7.58A49,49,0,0,0,218,35.28l5.65-27.11Z"/><polygon class="cls-2" points="234.12 43.94 241.59 8.17 226.64 8.17 216.39 57.12 253.23 57.12 255.97 43.94 234.12 43.94"/><polygon class="cls-2" points="300.26 21.35 303 8.17 265.03 8.17 254.81 57.12 294.48 57.12 297.27 43.94 272.35 43.94 273.66 38.28 295.95 38.28 298.69 25.1 276.47 25.1 277.25 21.35 300.26 21.35"/><polygon class="cls-2" points="108.67 59.85 104.18 81.32 95.49 59.85 82.77 59.85 72.55 108.8 86.91 108.8 91.42 87.25 100.08 108.8 112.78 108.8 123 59.85 108.67 59.85"/><path class="cls-2" d="M161.15,65c-3.84-3.88-8.89-5.84-15-5.84a25.82,25.82,0,0,0-12,2.75,25.19,25.19,0,0,0-8.76,7.46,32,32,0,0,0-5,10.81A33.8,33.8,0,0,0,119.12,89a23.87,23.87,0,0,0,1.93,9.29,18.23,18.23,0,0,0,6.87,8.08,20.71,20.71,0,0,0,11.75,3.23,25.9,25.9,0,0,0,14-3.88,26.92,26.92,0,0,0,9.76-11,32.12,32.12,0,0,0,3.52-14.5C166.93,74,165,68.83,161.15,65ZM145.76,94.38a8.65,8.65,0,0,1-5.12,1.8,6.12,6.12,0,0,1-4.87-2,7.7,7.7,0,0,1-1.92-5.4,20.1,20.1,0,0,1,3.55-11.57c2.16-3.21,4.71-4.71,8-4.71a6.1,6.1,0,0,1,4.76,2,8.2,8.2,0,0,1,1.91,5.89,19.86,19.86,0,0,1-1.89,8.1A14.33,14.33,0,0,1,145.76,94.38Z"/><polygon class="cls-2" points="169.81 59.85 167.06 73.03 179.66 73.03 172.16 108.8 187.14 108.8 194.61 73.03 207.03 73.03 209.77 59.85 169.81 59.85"/><path class="cls-2" d="M231.72,59.85H217.61L189.93,108.8h16l5.15-9.49h12.66l1.43,9.49h14.49Zm-14,26.31L221,80.65l.79,5.51Z"/><path class="cls-1" d="M180.43,42.66H170.37l-6.82,12.07,2.51-12.07H154.37l-3.1,14.76a16.48,16.48,0,0,1-.9,3.29c-.11.22-.19.27-.23.29a2.15,2.15,0,0,1-.92.14h-.06L153,42.66H141.32l-.9,4.3a10.41,10.41,0,0,0-1.81-2,12.31,12.31,0,0,0-8.25-2.65A11.69,11.69,0,0,0,122.2,45a9.46,9.46,0,0,0-3.15,7.18,9,9,0,0,0,1.13,4.51c.13.23.28.46.43.68l-4.13.22-.09,3.25a11.57,11.57,0,0,0,1.17,5.56,9.27,9.27,0,0,0,4.59,4.25A15.23,15.23,0,0,0,128.51,72a12.64,12.64,0,0,0,8.73-3A10.58,10.58,0,0,0,139,67a9.41,9.41,0,0,0,1.77,2.18A11.7,11.7,0,0,0,149,72a14.69,14.69,0,0,0,5.3-.91l-.3.54h12.77l2.62-4.83H173l.73,4.83h11.44Z"/><path class="cls-3" d="M156,44.66l-2.76,13.17a17.3,17.3,0,0,1-1.06,3.74,2.54,2.54,0,0,1-1,1.16,3.9,3.9,0,0,1-1.93.41,2.74,2.74,0,0,1-1.73-.46,1.21,1.21,0,0,1-.44-1,3.29,3.29,0,0,1,0-.42l3.46-16.6h-7.61l-2.67,12.73c-.42,2-.51,2.59-.54,2.8a10.83,10.83,0,0,0-.12,1.55,7.74,7.74,0,0,0,2.52,5.93A9.79,9.79,0,0,0,149,70a11.63,11.63,0,0,0,6.06-1.47,9.62,9.62,0,0,0,3.69-3.86,24.69,24.69,0,0,0,2-6.16l2.87-13.8Z"/><path class="cls-3" d="M178.73,44.66h-7.19L157.45,69.58h8.15l2.62-4.83h6.45l.73,4.83h7.37Zm-7.15,13.39,1.68-2.8.41,2.8Z"/><path class="cls-3" d="M131.44,53.56a12.52,12.52,0,0,1-2.86-1.49.43.43,0,0,1-.18-.38.53.53,0,0,1,.24-.48c.06-.05.43-.3,1.69-.3a3,3,0,0,1,1.87.46,2.08,2.08,0,0,1,.61,1.4l.15,1.44,7.31-.33-.11-1.57a8.16,8.16,0,0,0-2.85-5.85,10.4,10.4,0,0,0-6.95-2.17,9.82,9.82,0,0,0-6.82,2.21,7.45,7.45,0,0,0-2.49,5.71,7,7,0,0,0,.87,3.52,6.89,6.89,0,0,0,2.35,2.45,30.6,30.6,0,0,0,3.92,2,13.5,13.5,0,0,1,2.74,1.37c.24.2.26.33.26.47a.84.84,0,0,1-.42.71,3.59,3.59,0,0,1-2.23.46,3.52,3.52,0,0,1-2.48-.63,3.92,3.92,0,0,1-.34-1.83l-.06-1.54-7.23.38,0,1.41a9.57,9.57,0,0,0,1,4.6A7.28,7.28,0,0,0,123,68.87,13.2,13.2,0,0,0,128.51,70a10.69,10.69,0,0,0,7.39-2.44,7.89,7.89,0,0,0,2.8-6.08,6.59,6.59,0,0,0-2-4.92C136.18,56,135.06,55.11,131.44,53.56Z"/></svg>